<svg xmlns="http://www.w3.org/2000/svg" width="1000" height="1000" viewBox="0 0 1000 1000">
  <g>
    <path d="M195.75,708c-76.92,0-139.49-63.93-139.49-142.5S118.83,423,195.75,423a139.25,139.25,0,0,1,18.8,1.3l3.37.47,1.23-4.8c1.54-6.06,4.12-16.2,5.84-20.55A177.44,177.44,0,0,1,387.72,292c37.27,0,76.55,11.68,105.07,31.23l1,.67H727.29a11,11,0,0,1,11,10.9V446.41H829a11,11,0,0,1,11,10.9V565h92.8a11,11,0,0,1,11,10.9V708Z"/>
    <rect x="738.28" y="586.83" width="183.49" height="98.92" fill="#fff"/>
    <rect x="506.47" y="586.83" width="209.84" height="98.92" fill="#fff"/>
    <path d="M192.4,685.75H484.49V347.8L483,346.62a154.93,154.93,0,0,0-242.07,72.49l0,.15,0,.16c0,.13-.16.6-.36,1.29l-.06.24-.06.36c-.25,1.32-1.46,7.81-2.59,14.2-.28.91-3.59,10.34-21.21,10.34L189,445.63h-.12c-62,3.67-110.62,56.31-110.62,119.84,0,65,50.9,118.16,114.13,120Z" fill="#fff"/>
    <rect x="635.55" y="468.22" width="182.42" height="96.8" fill="#fff"/>
    <rect x="506.47" y="468.22" width="107.1" height="96.8" fill="#fff"/>
    <rect x="506.47" y="345.73" width="209.84" height="100.68" fill="#fff"/>
  </g>
</svg>
