<svg xmlns="http://www.w3.org/2000/svg" width="828.2" height="828.2" viewBox="0 0 828.2 828.2">
  <g>
    <path d="M175.46,478.89c-60.31,0-109.37-50.12-109.37-111.72s49.06-111.73,109.37-111.73a108.3,108.3,0,0,1,14.74,1l2.64.36,1-3.76c1.21-4.75,3.24-12.7,4.58-16.11A139.14,139.14,0,0,1,326,152.77c29.22,0,60,9.16,82.38,24.49l.76.52H592.2a8.6,8.6,0,0,1,8.62,8.55v87.49h71.1a8.58,8.58,0,0,1,8.61,8.55v84.44h72.76a8.6,8.6,0,0,1,8.62,8.55V478.89Z"/>
    <rect x="600.82" y="383.91" width="143.86" height="77.56" fill="#fff"/>
    <rect x="419.07" y="383.91" width="164.52" height="77.56" fill="#fff"/>
    <path d="M172.83,461.47h229v-265l-1.18-.92a121.47,121.47,0,0,0-189.8,56.83l0,.12,0,.12c0,.11-.12.48-.27,1l-.05.18-.05.29c-.19,1-1.14,6.12-2,11.13-.22.71-2.82,8.11-16.63,8.11l-21.61-.17h-.1c-48.63,2.88-86.73,44.15-86.73,94,0,51,39.9,92.64,89.48,94.08Z" fill="#fff"/>
    <rect x="520.27" y="290.92" width="143.03" height="75.9" fill="#fff"/>
    <rect x="419.07" y="290.92" width="83.97" height="75.9" fill="#fff"/>
    <rect x="419.07" y="194.88" width="164.52" height="78.94" fill="#fff"/>
    <g>
      <path d="M56.87,669q-.59-3.33-1.85-12t-2.93-20q-1.67-11.33-3.52-24T45,588.9q-1.76-11.32-3.13-20t-1.95-12A9.74,9.74,0,0,1,42,551.69,4.58,4.58,0,0,1,45.35,550a6.29,6.29,0,0,1,3.51,1.17,8,8,0,0,1,2.74,3.13L63.51,643q.59-2.14,2.35-8.4t4-14.55q2.25-8.29,4.88-17.67l5-17.68q2.36-8.3,4.11-14.55c1.17-4.17,2-7,2.34-8.4a13.58,13.58,0,0,1,3.32-3,10,10,0,0,1,4-1.56,6.38,6.38,0,0,1,4,.78,8.57,8.57,0,0,1,3.32,3.81L128.55,652l11.33-97.08a9.14,9.14,0,0,1,2.25-3.32,4.18,4.18,0,0,1,3.12-1.27,5,5,0,0,1,3.32,2.15,20.18,20.18,0,0,1,3,6.94c-.13.78-.43,2.83-.88,6.15s-1,7.39-1.66,12.21S147.69,588,146.91,594s-1.56,12.11-2.34,18.36-1.57,12.37-2.35,18.36-1.46,11.39-2.05,16.21-1.07,8.88-1.46,12.2-.66,5.38-.78,6.16a8.84,8.84,0,0,1-4,4.49,10.55,10.55,0,0,1-5.27,1.27,8.85,8.85,0,0,1-4.69-1.47,6.09,6.09,0,0,1-2.63-3.71L93.79,575.62q-3.53,16.41-7.13,30t-6.84,24.9q-3.22,11.32-6,20.51T69,667.81a6.91,6.91,0,0,1-2.93,3,7.73,7.73,0,0,1-3.51.88,7.3,7.3,0,0,1-3.32-.78A5.85,5.85,0,0,1,56.87,669Z" fill="#231f20"/>
      <path d="M237,668.2q.59-6.65,1-16.8t.29-21.68q-.1-11.52-.68-23.15t-1.86-21a87.16,87.16,0,0,0-3.32-15.53q-2.06-6.15-5-6.74a15.15,15.15,0,0,0-12,1.08A34.11,34.11,0,0,0,204.53,574a84.14,84.14,0,0,0-9.38,15.62q-4.29,9.09-7.91,19.14t-6.44,20.12q-2.84,10.06-4.59,18.46t-2.64,14.35a40.22,40.22,0,0,0-.68,7.72,15.09,15.09,0,0,0-3.42.49c-1.37.32-2.7.58-4,.78a7.33,7.33,0,0,1-3.42-.2,2.25,2.25,0,0,1-1.47-2.44l-3.32-160.74a2.12,2.12,0,0,1,1.57-2.25,8.87,8.87,0,0,1,3.51-.29,12,12,0,0,1,3.71,1,6.13,6.13,0,0,1,2.35,1.56l1,123.44q1.17-3.33,3-10.75t4.78-16.6a188.18,188.18,0,0,1,7.23-18.85,79.66,79.66,0,0,1,10.45-17.38,46.26,46.26,0,0,1,14.65-12.21q8.49-4.49,19.63-3.51a25.87,25.87,0,0,1,6.35,5,28.15,28.15,0,0,1,5.07,8.4,73.59,73.59,0,0,1,3.91,13.57,205.25,205.25,0,0,1,2.83,20.51q1.17,12.3,1.86,29.49t.88,40.24a6.65,6.65,0,0,1-2.35,2.63,9.39,9.39,0,0,1-3.81,1.66,6.16,6.16,0,0,1-4-.58A6.43,6.43,0,0,1,237,668.2Z" fill="#231f20"/>
      <path d="M257.46,510.77a3.42,3.42,0,0,1,1.76-3.41,8.53,8.53,0,0,1,3.9-.88c2.86,0,4.66.94,5.37,2.83a18.3,18.3,0,0,1,1.08,6.54,7.09,7.09,0,0,1-3.13,3.32,5.32,5.32,0,0,1-4,.39,6.42,6.42,0,0,1-3.52-2.73A10.73,10.73,0,0,1,257.46,510.77Zm2.34,39.85a13.23,13.23,0,0,1,2.74-1,12.46,12.46,0,0,1,3-.39,7.19,7.19,0,0,1,2.84.59,4.3,4.3,0,0,1,2.14,2.15q0,12.69.3,27.44t.78,29.88q.48,15.13.88,29.78t.78,27.15a5.22,5.22,0,0,1-1.56,4.5,5.67,5.67,0,0,1-3.81,1.56,5.82,5.82,0,0,1-3.81-1.47,5.63,5.63,0,0,1-1.76-4.59Z" fill="#231f20"/>
      <path d="M301.4,577.77l-18,6.05a7.53,7.53,0,0,1-3.61-2.15,9,9,0,0,1-2.05-3.32,6.51,6.51,0,0,1-.29-3.32,3.26,3.26,0,0,1,1.66-2.34l22.26-8.4L301,509a5.56,5.56,0,0,1,2.54-3.71,6.83,6.83,0,0,1,7.81.29,6,6,0,0,1,2.35,3.22q-.39,6.06-.59,12.79t-.29,13.48q-.1,6.74.1,13.09c.12,4.23.39,8.1.78,11.62L344,547.49a4.57,4.57,0,0,1,4.3.49,6,6,0,0,1,2.05,3.32,6.63,6.63,0,0,1-.29,4A4.76,4.76,0,0,1,347.3,558l-33.59,15.23q0,2,.19,9.28t.39,17.29q.19,10,.39,21.29t.3,21.28q.09,10,.19,17.29c.07,4.88.1,8,.1,9.28q-.39,6.43-3.71,6.44c-2.22,0-4.62-1-7.23-3.12Z" fill="#231f20"/>
      <path d="M345.15,618.39c-.91.78-2.51,1.08-4.78.88a21,21,0,0,1-6.25-1.46,6.87,6.87,0,0,1-3.81-3.23c-.65-1.36.13-3,2.34-4.78a8.06,8.06,0,0,1,3-1.66l3.32-1a6.84,6.84,0,0,0,2.74-1.46,4.66,4.66,0,0,0,1.26-3.13,155.7,155.7,0,0,1,1.47-18,54.39,54.39,0,0,1,4.78-16.4,28.43,28.43,0,0,1,10.06-11.53q6.54-4.29,17.29-3.32a25.06,25.06,0,0,1,8.79,1.86,46,46,0,0,1,9.37,4.88,34.51,34.51,0,0,1,7.82,7.23,19.49,19.49,0,0,1,4.1,9.08q1.36,2-1.57,4.88a57.21,57.21,0,0,1-8.2,6.54q-5.27,3.63-11.91,7.33t-12.8,7L361.36,608a68.9,68.9,0,0,0-6.05,3.52q1.17,7.61,2.54,16a86.32,86.32,0,0,0,3.9,15.43,38.64,38.64,0,0,0,6.35,11.62,12,12,0,0,0,9.67,4.59q8.6.59,14.75-2.54a30.92,30.92,0,0,0,10.25-8.2,43.89,43.89,0,0,0,6.54-11.13A77.31,77.31,0,0,0,413,625.81a93.83,93.83,0,0,0,1.76-9.27c.33-2.54.62-3.94.88-4.2a5.57,5.57,0,0,1,4.88-.1q2.74,1.08,3.13,5.76.19,7.62-3.32,17.38a68.47,68.47,0,0,1-9.67,18A49.4,49.4,0,0,1,396,666.54,26.32,26.32,0,0,1,378,670q-10-.18-15.82-5.76a40.3,40.3,0,0,1-9.28-13.47,75,75,0,0,1-5-16.7Q346.31,625.23,345.15,618.39Zm51.18-42q-6.25-8.6-12.7-10.94a27.12,27.12,0,0,0-13.28-1.37,12.34,12.34,0,0,0-7.23,3.81,24.48,24.48,0,0,0-5.08,8.21,46.52,46.52,0,0,0-2.73,11.13,58.14,58.14,0,0,0-.2,12.6Z" fill="#231f20"/>
      <path d="M434.41,670.15Q433.24,653,432.75,637t-.68-34.57q-.19-18.55-.39-41.61t-.78-54.1a38,38,0,0,0,4.78-.29,15.91,15.91,0,0,1,3.91-.1,4.09,4.09,0,0,1,2.63,1.27c.65.72,1,2.05,1,4q0,8,.1,15.52t.1,16.51q0,9,.09,20.5t.1,27.35a131.5,131.5,0,0,1,14-15.92,57.91,57.91,0,0,1,12-9,32.07,32.07,0,0,1,11-3.72,46.76,46.76,0,0,1,10.84-.09,18.84,18.84,0,0,1,10.35,2.63,19.45,19.45,0,0,1,6.55,7,31.69,31.69,0,0,1,3.41,10.05,68.07,68.07,0,0,1,1,11.72q-.19,4.3-.58,9.28a47.67,47.67,0,0,1-2.25,10.74,54.43,54.43,0,0,1-5.76,12,72.78,72.78,0,0,1-11,13.19,135.45,135.45,0,0,1-18,14.35A226.5,226.5,0,0,1,448.67,669a69.87,69.87,0,0,1-7.91,1.76,24.36,24.36,0,0,1-4.3.29,3.53,3.53,0,0,1-1.76-.39A.84.84,0,0,1,434.41,670.15Zm9.77-12.5a38,38,0,0,1,5.47-2.93q4.49-2.15,10.74-5.66a142.45,142.45,0,0,0,13.28-8.6,85.76,85.76,0,0,0,13.18-11.81,67.18,67.18,0,0,0,10.45-15.34,50.82,50.82,0,0,0,5.08-19.14,26.51,26.51,0,0,0-.88-6.44,23.52,23.52,0,0,0-2.73-6.55,17.62,17.62,0,0,0-4.69-5.07,11.18,11.18,0,0,0-6.74-2.05,27.31,27.31,0,0,0-14.55,4A50.87,50.87,0,0,0,461,588.12a78.22,78.22,0,0,0-9.27,13.18q-4,7.14-6.74,13.38Z" fill="#231f20"/>
      <path d="M523.86,666.83q-.58-27-1-45.7t-.59-31.06q-.19-12.3-.29-19.24c-.07-4.62-.13-8-.2-10.25s-.09-3.55-.09-4v-.87a4.09,4.09,0,0,1,1.75-2.93,7.66,7.66,0,0,1,3.42-1.47,6.34,6.34,0,0,1,3.61.49,4.82,4.82,0,0,1,2.54,2.54l.59,44.92q2.93-13.47,9.47-22.46a54,54,0,0,1,14.75-14.16,48.15,48.15,0,0,1,33.59-6.93,6.66,6.66,0,0,1,3.81,2.14,5.86,5.86,0,0,1,1.37,3.42,5.81,5.81,0,0,1-1,3.52,6.42,6.42,0,0,1-2.83,2.44,50.33,50.33,0,0,0-41.7,17,46.66,46.66,0,0,0-7.52,11.53A67.42,67.42,0,0,0,538,614.19a161.62,161.62,0,0,0-1.75,19.24q-.3,9.57,0,18.16t.09,15a4.07,4.07,0,0,1-1.85,3.23A7.49,7.49,0,0,1,530.8,671a7.92,7.92,0,0,1-4.1-1A5.73,5.73,0,0,1,523.86,666.83Z" fill="#231f20"/>
      <path d="M603,510.77a3.43,3.43,0,0,1,1.75-3.41,8.61,8.61,0,0,1,3.91-.88q4.29,0,5.37,2.83a18.52,18.52,0,0,1,1.08,6.54,7.14,7.14,0,0,1-3.13,3.32,5.32,5.32,0,0,1-4,.39,6.42,6.42,0,0,1-3.52-2.73A10.64,10.64,0,0,1,603,510.77Zm2.34,39.85a13.35,13.35,0,0,1,2.73-1,12.47,12.47,0,0,1,3-.39,7.11,7.11,0,0,1,2.83.59,4.28,4.28,0,0,1,2.15,2.15q0,12.69.29,27.44t.79,29.88q.48,15.13.87,29.78t.79,27.15a5.22,5.22,0,0,1-1.57,4.5,5.63,5.63,0,0,1-3.81,1.56,5.81,5.81,0,0,1-3.8-1.47,5.6,5.6,0,0,1-1.76-4.59Z" fill="#231f20"/>
      <path d="M629.14,620.54q.58-8,1.36-16.21a151.25,151.25,0,0,1,2.35-15.92,97.4,97.4,0,0,1,4.1-14.55A43.35,43.35,0,0,1,643.49,562a29,29,0,0,1,9.77-8A28.63,28.63,0,0,1,667,551.2a9.42,9.42,0,0,1,8.4,4.59,31.86,31.86,0,0,1,4.2,11A74.17,74.17,0,0,1,681,580.11q.1,6.84.1,11.13a5.56,5.56,0,0,1-5,0,8.39,8.39,0,0,1-3.32-3.81,36.24,36.24,0,0,1-2.25-6.15c-.65-2.34-1.2-4.69-1.66-7s-1-4.56-1.56-6.64a20.88,20.88,0,0,0-2.05-5.08,6.36,6.36,0,0,0-6.84,1,24,24,0,0,0-6,7.32,64.45,64.45,0,0,0-5,11.43q-2.25,6.65-3.81,13.38t-2.54,13a70.16,70.16,0,0,0-1,10.54,110.21,110.21,0,0,0,1.17,12.6,62.78,62.78,0,0,0,3.12,12.6A33.35,33.35,0,0,0,650,654.43a15.62,15.62,0,0,0,9,5.37,29.34,29.34,0,0,0,12.6-2.44,26.66,26.66,0,0,0,8.59-6.25,29.68,29.68,0,0,0,5.37-8.5,64.39,64.39,0,0,0,3.13-9.47q1.17-4.78,1.85-9a63.25,63.25,0,0,1,1.47-6.93q5.07-1.37,7.91.19c1.88,1.05,2.83,2.28,2.83,3.72A53.64,53.64,0,0,1,699.65,639a52.31,52.31,0,0,1-8.89,15.91,44.51,44.51,0,0,1-14,11.33,39.28,39.28,0,0,1-18.55,4.3A19.75,19.75,0,0,1,643.79,665a39.72,39.72,0,0,1-8.89-13.38,68.93,68.93,0,0,1-4.49-16.4A102.15,102.15,0,0,1,629.14,620.54Z" fill="#231f20"/>
      <path d="M710.19,507.84q4.5-4.48,7.13-3.71c1.76.52,3.09,2.28,4,5.28l.39,108.79,50.58-68.36a13,13,0,0,1,5.57,1.07q2.24,1.08,2.24,5L728.55,627,786,655.5a16.81,16.81,0,0,1,1.47,2.64,8.69,8.69,0,0,1,.88,3.71,5.43,5.43,0,0,1-1.37,3.51c-.91,1.11-2.61,1.73-5.08,1.86l-59-30.86V668.2q-1.36,3.31-2.93,4.29a4.33,4.33,0,0,1-3.13.69,6.9,6.9,0,0,1-3-1.47c-1-.78-1.86-1.49-2.64-2.15Z" fill="#231f20"/>
    </g>
  </g>
</svg>
