<svg xmlns="http://www.w3.org/2000/svg" width="624.2" height="286.37" viewBox="0 0 624.2 286.37"><path d="M286,529.11A98.11,98.11,0,1,1,299.23,333.8l2.37.32.87-3.31c1.08-4.17,2.9-11.15,4.1-14.15a122.34,122.34,0,0,1,45.61-53.52A125.9,125.9,0,0,1,421,242.74c26.21,0,53.84,8,73.9,21.5l.68.46H659.86a7.62,7.62,0,0,1,7.73,7.5V349h63.78a7.63,7.63,0,0,1,7.73,7.51v74.15h65.27a7.63,7.63,0,0,1,7.73,7.5v90.92Zm381.58-15.3h129V445.7h-129Zm-163,0H652.13V445.7H504.55Zm-220.9,0H489.09V281.14l-1.06-.81a110.93,110.93,0,0,0-67-22.58c-46.77,0-88.26,29.13-103.26,72.48l0,.11,0,.1c0,.1-.11.42-.25.9l0,.16,0,.25c-.17.9-1,5.38-1.82,9.77-.2.63-2.53,7.13-14.92,7.13l-19.39-.16h-.09a82.65,82.65,0,0,0,2.47,165.12Zm311.69-83.12h128.3V364H595.34Zm-90.79,0h75.33V364H504.55Zm0-81.66H652.13V279.71H504.55Z" transform="translate(-187.9 -242.74)"/></svg>