<svg xmlns="http://www.w3.org/2000/svg" width="695.81" height="326.12" viewBox="0 0 695.81 326.12">
  <path d="M261.46,533.39c-60.31,0-109.37-50.12-109.37-111.73s49.06-111.72,109.37-111.72a108.27,108.27,0,0,1,14.74,1l2.64.37,1-3.76c1.21-4.75,3.24-12.7,4.58-16.12A139.15,139.15,0,0,1,412,207.27c29.22,0,60,9.15,82.38,24.48l.76.52H678.2a8.6,8.6,0,0,1,8.62,8.55v87.49h71.1a8.59,8.59,0,0,1,8.61,8.55V421.3h72.76a8.6,8.6,0,0,1,8.62,8.55V533.39Z" transform="translate(-152.09 -207.27)"/>
  <rect x="534.72" y="231.13" width="143.86" height="77.56" fill="#fff"/>
  <rect x="352.98" y="231.13" width="164.52" height="77.56" fill="#fff"/>
  <path d="M258.83,516h229V251l-1.18-.93a121.49,121.49,0,0,0-189.8,56.83l0,.12,0,.13c0,.1-.12.47-.27,1l0,.19-.05.28c-.2,1-1.14,6.13-2,11.13-.22.71-2.82,8.12-16.63,8.12l-21.61-.18h-.1c-48.63,2.87-86.73,44.14-86.73,94,0,51,39.9,92.64,89.48,94.09Z" transform="translate(-152.09 -207.27)" fill="#fff"/>
  <rect x="454.18" y="138.14" width="143.03" height="75.9" fill="#fff"/>
  <rect x="352.98" y="138.14" width="83.97" height="75.9" fill="#fff"/>
  <rect x="352.98" y="42.11" width="164.52" height="78.94" fill="#fff"/>
</svg>
